<svg width="410" height="306" viewBox="0 0 410 306" fill="none" xmlns="http://www.w3.org/2000/svg">
<g clip-path="url(#clip0_1511_9378)">
<path d="M66.87 145.27C55.19 159.11 45.7 174.25 40.63 191.77C36.92 204.61 42.17 216.43 53.61 223.39C56.15 224.94 57.56 223.51 59.41 222.69C67.56 219.09 77.04 221.84 81.86 229.2C86.64 236.49 85.5 246.02 79.15 251.98C72.85 257.88 63.18 258.5 56.2 253.4C52.4 250.63 49.76 246.9 49.26 242.29C48.93 239.19 47.45 237.77 45.07 236.24C26.38 224.23 19.63 205.54 26.47 184.35C31.95 167.38 41.3 152.48 52.04 138.39C53.14 136.94 54.17 135.44 55.23 133.97C57.02 132.02 58.83 130.09 60.6 128.12C69.99 117.66 80.31 108.28 92.48 101.12C103.9 94.4004 116.05 90.2504 129.55 91.7404C131.8 91.9904 133.27 91.1804 134.87 89.8204C146.97 79.5404 160.84 72.5504 175.96 67.8904C194.22 62.2604 212.92 61.5704 231.8 62.7904C239.84 64.1504 247.88 65.4404 255.59 68.2704C281.1 77.6204 297.6 96.2104 308.79 120.18C311.39 125.75 313.75 131.46 315.79 137.25C320.1 149.5 329 155.17 341.54 155.65C352.36 156.06 363.2 155.78 373.93 157.64C396.95 161.63 408.84 175.59 409.02 198.95C409.39 248.08 375.94 289.56 325.9 301.61C296.55 308.67 268.63 305.5 243.26 288.09C216.13 269.47 206.24 243.53 212.58 211.64C214.27 203.12 214.4 197.05 208.08 189.6C195.01 174.21 196.49 151.22 209.46 135.71C222.69 119.89 244.86 115.23 263.38 124.38C281.68 133.41 291.38 153.76 286.89 173.71C282.48 193.31 265.06 207.48 244.83 207.96C240.3 208.07 235.72 207.92 231.52 206.31C228.18 205.03 227.64 206.48 227 209.11C218.93 242.48 231.16 268.27 262.19 283.19C312.27 307.26 379.79 275.36 392.35 221.67C392.8 219.74 393 217.74 393.31 215.77C394.83 210.81 395.09 205.69 395.11 200.57C395.17 181.8 387.61 173.2 369.01 170.84C367.38 170.63 365.72 170.67 364.07 170.6C357.33 169.19 350.48 169.79 343.68 169.64C322.4 169.16 309.83 160.53 302.29 140.71C297.96 129.33 293.17 118.2 285.93 108.31C271.34 88.3804 251.77 77.7204 226.98 76.8704C199.2 74.0904 173.46 79.7504 150.19 95.5204C149.33 96.1004 147.97 96.3904 148.01 98.0904C154.24 102.19 159.5 107.43 164.01 113.48C168.91 120.05 172.2 127.5 175.84 134.76C184.11 158.06 188.04 182.03 186.99 206.77C186.64 215.11 185.68 223.35 183.25 231.37C177.99 248.7 164.43 259.97 146.38 261.83C141.64 262.32 137.62 262.93 133.8 266.98C126.81 274.38 114.61 272.93 108.15 265.02C101.82 257.26 103.13 245.83 111.06 239.67C119.15 233.38 130.92 234.85 136.57 243.42C138.65 246.58 140.76 246.99 143.93 246.61C157.27 245.02 166.12 237.63 168.9 224.46C174.32 198.76 171.4 173.51 163.8 148.62C161.15 139.64 157.35 131.18 151.95 123.51C140.19 106.79 125.16 102.6 106.68 111.31C90.38 119 77.69 131.11 66.85 145.29L66.87 145.27ZM243.71 146.53C232.62 146.52 223.59 154.6 222.43 165.55C222.12 168.46 222.54 171.15 225.88 171.69C229.5 172.28 230.65 169.97 231.09 166.65C232.02 159.56 237.23 154.97 243.76 155.06C250.12 155.14 255.09 159.63 256.05 166.47C256.49 169.65 257.49 172.21 261.16 171.73C264.88 171.24 265.11 168.28 264.78 165.25C263.63 154.65 254.51 146.54 243.71 146.53Z" fill="#0E0C17"/>
<path d="M231.82 62.7803C212.94 61.5603 194.24 62.2503 175.98 67.8803C160.86 72.5403 146.99 79.5303 134.89 89.8103C133.29 91.1703 131.82 91.9803 129.57 91.7303C116.07 90.2303 103.92 94.3903 92.5 101.11C80.33 108.27 70.01 117.65 60.62 128.11C58.85 130.08 57.04 132.01 55.25 133.96C40.37 119.43 24.47 105.77 11.52 89.4903C-13.89 57.5303 5.11995 8.1503 45.32 1.0603C65.38 -2.4797 83.13 3.2003 97.93 17.3803C102.98 22.2203 107.97 27.1303 112.76 32.2303C115.1 34.7303 116.61 34.8803 119.13 32.3303C125.79 25.5903 132.43 18.8303 139.55 12.5203C158.77 -4.5097 193.01 -4.0997 212.12 13.2503C226.89 26.6603 233.17 43.1203 231.82 62.7703V62.7803Z" fill="#6B9BEA"/>
<path d="M66.87 145.27C77.71 131.09 90.4 118.98 106.7 111.29C125.18 102.57 140.21 106.76 151.97 123.49C157.37 131.17 161.17 139.62 163.82 148.6C161.52 148.71 160.48 150.63 159.09 151.98C147.3 163.47 135.57 175.02 123.77 186.5C118.75 191.38 113.64 191.73 108.86 187.11C95.23 173.94 81.76 160.59 68.25 147.29C67.68 146.73 67.32 145.94 66.86 145.26L66.87 145.27Z" fill="#6B9BEA"/>
<path d="M175.86 134.73C172.21 127.47 168.93 120.03 164.03 113.45C159.52 107.4 154.26 102.17 148.03 98.0596C147.98 96.3596 149.35 96.0696 150.21 95.4896C173.48 79.7196 199.22 74.0596 227 76.8396C226.42 82.9796 222.83 87.8196 218.92 91.8596C204.83 106.4 190.26 120.47 175.87 134.72L175.86 134.73Z" fill="#6B9BEA"/>
<path d="M364.08 170.58C365.73 170.65 367.39 170.61 369.02 170.82C387.63 173.18 395.18 181.78 395.12 200.55C395.1 205.68 394.85 210.8 393.32 215.75C380.13 213 372.1 204.34 367.09 192.48C364.15 185.51 363.44 178.11 364.07 170.58H364.08Z" fill="#6B9BEA"/>
<path d="M243.72 146.53C254.52 146.54 263.64 154.65 264.79 165.25C265.12 168.28 264.89 171.24 261.17 171.73C257.5 172.21 256.5 169.65 256.06 166.47C255.11 159.63 250.14 155.14 243.77 155.06C237.24 154.98 232.03 159.57 231.1 166.65C230.66 169.97 229.51 172.27 225.89 171.69C222.54 171.15 222.13 168.46 222.44 165.55C223.6 154.6 232.63 146.51 243.72 146.53Z" fill="#FEFEFE"/>
</g>
<defs>
<clipPath id="clip0_1511_9378">
<rect width="409.04" height="305.11" fill="white"/>
</clipPath>
</defs>
</svg>
